<svg height="702" width="720" xmlns="http://www.w3.org/2000/svg">
<rect height="702" fill="#555" width="720"></rect>
<text fill="#7f7" font-family="Courier New" font-size="12" xml:space="preserve">
<tspan x="10" y="26">10 megabytes</tspan>
<tspan x="10" y="42">└─┬ npm-gui@0.3.1 </tspan>
<tspan x="10" y="58">  └─┬ nsp@2.6.3 </tspan>
<tspan x="10" y="74">    ├─┬ chalk@1.1.3 </tspan>
<tspan x="10" y="90">    │ ├── ansi-styles@2.2.1 </tspan>
<tspan x="10" y="106">    │ ├── escape-string-regexp@1.0.5 </tspan>
<tspan x="10" y="122">    │ ├─┬ has-ansi@2.0.0 </tspan>
<tspan x="10" y="138">    │ │ └── ansi-regex@2.0.0 </tspan>
<tspan x="10" y="154">    │ ├─┬ strip-ansi@3.0.1 </tspan>
<tspan x="10" y="170">    │ │ └── ansi-regex@2.0.0 </tspan>
<tspan x="10" y="186">    │ └── supports-color@2.0.0 </tspan>
<tspan x="10" y="202">    ├─┬ cli-table@0.3.1 </tspan>
<tspan x="10" y="218">    │ └── colors@1.0.3 </tspan>
<tspan x="10" y="234">    ├── cvss@1.0.1 </tspan>
<tspan x="10" y="250">    ├─┬ https-proxy-agent@1.0.0 </tspan>
<tspan x="10" y="266">    │ ├─┬ agent-base@2.0.1 </tspan>
<tspan x="10" y="282">    │ │ └── semver@5.0.3 </tspan>
<tspan x="10" y="298">    │ ├─┬ debug@2.2.0 </tspan>
<tspan x="10" y="314">    │ │ └── ms@0.7.1 </tspan>
<tspan x="10" y="330">    │ └── extend@3.0.0 </tspan>
<tspan x="10" y="346">    ├─┬ joi@6.10.1 </tspan>
<tspan x="10" y="362">    │ ├── hoek@2.16.3 </tspan>
<tspan x="10" y="378">    │ ├── isemail@1.2.0 </tspan>
<tspan x="10" y="394">    │ ├── moment@2.12.0 </tspan>
<tspan x="10" y="410">    │ └── topo@1.1.0 </tspan>
<tspan x="10" y="426">    ├── nodesecurity-npm-utils@5.0.0 </tspan>
<tspan x="10" y="442">    ├── path-is-absolute@1.0.0 </tspan>
<tspan x="10" y="458">    ├─┬ rc@1.1.6 </tspan>
<tspan x="10" y="474">    │ ├── deep-extend@0.4.1 </tspan>
<tspan x="10" y="490">    │ ├── ini@1.3.4 </tspan>
<tspan x="10" y="506">    │ ├── minimist@1.2.0 </tspan>
<tspan x="10" y="522">    │ └── strip-json-comments@1.0.4 </tspan>
<tspan x="10" y="538">    ├── semver@5.1.0 </tspan>
<tspan x="10" y="554">    ├─┬ subcommand@2.0.3 </tspan>
<tspan x="10" y="570">    │ ├── cliclopts@1.1.1 </tspan>
<tspan x="10" y="586">    │ ├─┬ debug@2.2.0 </tspan>
<tspan x="10" y="602">    │ │ └── ms@0.7.1 </tspan>
<tspan x="10" y="618">    │ ├── minimist@1.2.0 </tspan>
<tspan x="10" y="634">    │ └── xtend@4.0.1 </tspan>
<tspan x="10" y="650">    └─┬ wreck@6.3.0 </tspan>
<tspan x="10" y="666">      ├── boom@2.10.1 </tspan>
<tspan x="10" y="682">      └── hoek@2.16.3</tspan>
</text>
</svg>
